<svg width="63" height="63" viewBox="0 0 63 63" fill="none" xmlns="http://www.w3.org/2000/svg">
<path d="M55.125 28.875V23.625H49.875V18.375C49.8708 16.9839 49.3164 15.6509 48.3327 14.6673C47.3491 13.6836 46.0161 13.1292 44.625 13.125H39.375V7.875H34.125V13.125H28.875V7.875H23.625V13.125H18.375C16.9839 13.1292 15.6509 13.6836 14.6673 14.6673C13.6836 15.6509 13.1292 16.9839 13.125 18.375V23.625H7.875V28.875H13.125V34.125H7.875V39.375H13.125V44.625C13.1292 46.0161 13.6836 47.3491 14.6673 48.3327C15.6509 49.3164 16.9839 49.8708 18.375 49.875H23.625V55.125H28.875V49.875H34.125V55.125H39.375V49.875H44.625C46.0161 49.8708 47.3491 49.3164 48.3327 48.3327C49.3164 47.3491 49.8708 46.0161 49.875 44.625V39.375H55.125V34.125H49.875V28.875H55.125ZM44.625 44.625H18.375V18.375H44.625V44.625Z" fill="#1F4E3C"/>
<path d="M29.8225 21H26.2919L21.0156 42H23.7115L24.9295 37.0781H31.009L32.1955 42H34.9833L29.8225 21ZM25.2839 34.9755L27.9561 23.4937H28.0769L30.6573 34.9755H25.2839ZM37.3904 21H40.0154V42H37.3904V21Z" fill="#1F4E3C"/>
</svg>
