<svg width="14" height="14" viewBox="0 0 14 14" fill="none" xmlns="http://www.w3.org/2000/svg">
<path d="M7 2.84375C7.36244 2.84375 7.65625 2.54994 7.65625 2.1875C7.65625 1.82506 7.36244 1.53125 7 1.53125C6.63756 1.53125 6.34375 1.82506 6.34375 2.1875C6.34375 2.54994 6.63756 2.84375 7 2.84375Z" stroke="black" stroke-width="1.5" stroke-linecap="round" stroke-linejoin="round"/>
<path d="M7 7.65625C7.36244 7.65625 7.65625 7.36244 7.65625 7C7.65625 6.63756 7.36244 6.34375 7 6.34375C6.63756 6.34375 6.34375 6.63756 6.34375 7C6.34375 7.36244 6.63756 7.65625 7 7.65625Z" stroke="black" stroke-width="1.5" stroke-linecap="round" stroke-linejoin="round"/>
<path d="M7 12.4688C7.36244 12.4688 7.65625 12.1749 7.65625 11.8125C7.65625 11.4501 7.36244 11.1562 7 11.1562C6.63756 11.1562 6.34375 11.4501 6.34375 11.8125C6.34375 12.1749 6.63756 12.4688 7 12.4688Z" stroke="black" stroke-width="1.5" stroke-linecap="round" stroke-linejoin="round"/>
</svg>
