<svg width="31" height="25" viewBox="0 0 31 25" fill="none" xmlns="http://www.w3.org/2000/svg">
<path d="M25.4956 15.503C24.257 16.262 22.8344 16.6612 21.3849 16.6565C20.1706 16.6468 18.97 16.3964 17.8515 15.9196C16.9895 17.1464 16.5281 18.6135 16.5316 20.1169V23.9562C16.5319 24.099 16.5031 24.2403 16.447 24.3714C16.3908 24.5025 16.3085 24.6205 16.2052 24.7182C16.1019 24.8158 15.9798 24.8911 15.8464 24.9391C15.7131 24.9872 15.5713 25.0072 15.43 24.9977C15.1645 24.9744 14.9175 24.8508 14.7385 24.6516C14.5596 24.4524 14.462 24.1924 14.4653 23.9237V22.3041L9.47772 17.2762C8.7363 17.555 7.95217 17.7009 7.16086 17.7071C6.07148 17.7098 5.0025 17.4094 4.07171 16.8388C1.25764 15.1151 -0.257233 11.1482 0.0359261 6.22317C0.0506867 5.96837 0.157745 5.7279 0.336774 5.54743C0.515804 5.36695 0.754341 5.25902 1.0071 5.24414C5.89265 4.95382 9.8277 6.47573 11.5324 9.31255C12.2022 10.4245 12.4946 11.726 12.3654 13.0203C12.3574 13.1206 12.3207 13.2164 12.2598 13.2961C12.1989 13.3758 12.1164 13.4361 12.0223 13.4695C11.9282 13.503 11.8265 13.5083 11.7294 13.4847C11.6324 13.4611 11.5443 13.4097 11.4756 13.3367L8.99601 10.7199C8.80068 10.5328 8.54058 10.4301 8.27117 10.4335C8.00176 10.437 7.74436 10.5464 7.55384 10.7385C7.36333 10.9306 7.25477 11.19 7.25132 11.4616C7.24787 11.7332 7.3498 11.9954 7.53538 12.1923L14.4937 19.3853C14.5015 19.2837 14.5105 19.1822 14.5208 19.0819C14.7468 17.1509 15.592 15.3471 16.9281 13.9447L23.4615 6.98477C23.6554 6.78951 23.7644 6.52462 23.7645 6.24836C23.7646 5.9721 23.6559 5.70711 23.4622 5.51168C23.2685 5.31625 23.0057 5.20639 22.7317 5.20627C22.4576 5.20615 22.1948 5.31577 22.0009 5.51103L15.6728 12.2574C15.6095 12.3251 15.5293 12.3744 15.4407 12.4002C15.352 12.426 15.2581 12.4275 15.1688 12.4043C15.0794 12.3812 14.9978 12.3344 14.9325 12.2687C14.8671 12.203 14.8204 12.1209 14.7972 12.0309C14.1851 9.75519 14.455 7.4899 15.6237 5.54488C17.9303 1.70691 23.2975 -0.34747 29.9821 0.0483042C30.2348 0.0631841 30.4734 0.171108 30.6524 0.351585C30.8314 0.532062 30.9385 0.772526 30.9532 1.02733C31.3407 7.76721 29.3028 13.1779 25.4956 15.503Z" fill="#95D517"/>
</svg>
