<svg width="53" height="53" viewBox="0 0 53 53" fill="none" xmlns="http://www.w3.org/2000/svg">
<path d="M15.4584 39.7498C14.8327 39.7498 14.3086 39.5378 13.8861 39.1138C13.4636 38.6898 13.2516 38.1657 13.2501 37.5415V33.1248H41.9584V13.2498H46.3751C47.0008 13.2498 47.5256 13.4618 47.9496 13.8858C48.3736 14.3098 48.5849 14.8339 48.5834 15.4582V48.5832L39.7501 39.7498H15.4584ZM4.41675 37.5415V6.62484C4.41675 5.99914 4.62875 5.47503 5.05275 5.0525C5.47675 4.62998 6.00086 4.41798 6.62508 4.4165H35.3334C35.9591 4.4165 36.484 4.6285 36.908 5.0525C37.332 5.4765 37.5432 6.00062 37.5418 6.62484V26.4998C37.5418 27.1255 37.3298 27.6504 36.9058 28.0744C36.4818 28.4984 35.9576 28.7096 35.3334 28.7082H13.2501L4.41675 37.5415Z" fill="#1F4E3C"/>
</svg>
