<svg width="31" height="31" viewBox="0 0 31 31" fill="none" xmlns="http://www.w3.org/2000/svg">
<path d="M29.9667 14.4667H27.8561C27.6434 11.8988 26.6321 9.462 24.964 7.49813L26.5644 5.89775C26.7583 5.70385 26.8672 5.44088 26.8672 5.16667C26.8672 4.89246 26.7583 4.62948 26.5644 4.43558C26.3705 4.24169 26.1075 4.13276 25.8333 4.13276C25.5591 4.13276 25.2961 4.24169 25.1022 4.43558L23.5083 6.03596C21.5427 4.36671 19.1034 3.35531 16.5333 3.14392V1.03333C16.5333 0.759276 16.4245 0.496444 16.2307 0.302656C16.0369 0.108869 15.7741 0 15.5 0C15.2259 0 14.9631 0.108869 14.7693 0.302656C14.5755 0.496444 14.4667 0.759276 14.4667 1.03333V3.14392C11.8988 3.35663 9.462 4.36795 7.49813 6.03596L5.89775 4.43558C5.70385 4.24169 5.44088 4.13276 5.16667 4.13276C4.89246 4.13276 4.62948 4.24169 4.43558 4.43558C4.24169 4.62948 4.13276 4.89246 4.13276 5.16667C4.13276 5.44088 4.24169 5.70385 4.43558 5.89775L6.03596 7.49813C4.36671 9.46376 3.35531 11.903 3.14392 14.4731H1.03333C0.759276 14.4731 0.496444 14.582 0.302656 14.7758C0.108869 14.9696 0 15.2324 0 15.5065C0 15.7805 0.108869 16.0433 0.302656 16.2371C0.496444 16.4309 0.759276 16.5398 1.03333 16.5398H3.14392C3.35663 19.1076 4.36795 21.5445 6.03596 23.5083L4.43558 25.1022C4.24169 25.2961 4.13276 25.5591 4.13276 25.8333C4.13276 26.1075 4.24169 26.3705 4.43558 26.5644C4.62948 26.7583 4.89246 26.8672 5.16667 26.8672C5.44088 26.8672 5.70385 26.7583 5.89775 26.5644L7.49813 24.964C9.46376 26.6333 11.903 27.6447 14.4731 27.8561V29.9667C14.4731 30.2407 14.582 30.5036 14.7758 30.6973C14.9696 30.8911 15.2324 31 15.5065 31C15.7805 31 16.0433 30.8911 16.2371 30.6973C16.4309 30.5036 16.5398 30.2407 16.5398 29.9667V27.8561C19.1076 27.6434 21.5445 26.6321 23.5083 24.964L25.1087 26.5644C25.3026 26.7583 25.5656 26.8672 25.8398 26.8672C26.114 26.8672 26.377 26.7583 26.5709 26.5644C26.7648 26.3705 26.8737 26.1075 26.8737 25.8333C26.8737 25.5591 26.7648 25.2961 26.5709 25.1022L24.964 23.5083C26.6333 21.5427 27.6447 19.1034 27.8561 16.5333H29.9667C30.2407 16.5333 30.5036 16.4245 30.6973 16.2307C30.8911 16.0369 31 15.7741 31 15.5C31 15.2259 30.8911 14.9631 30.6973 14.7693C30.5036 14.5755 30.2407 14.4667 29.9667 14.4667ZM9.3 12.9167C9.3 12.2014 9.51211 11.5021 9.90952 10.9074C10.3069 10.3126 10.8718 9.84904 11.5326 9.5753C12.1935 9.30157 12.9207 9.22994 13.6222 9.36949C14.3238 9.50904 14.9682 9.8535 15.474 10.3593C15.9798 10.8651 16.3243 11.5095 16.4638 12.2111C16.6034 12.9127 16.5318 13.6398 16.258 14.3007C15.9843 14.9616 15.5207 15.5264 14.926 15.9238C14.3312 16.3212 13.632 16.5333 12.9167 16.5333C11.9575 16.5333 11.0376 16.1523 10.3593 15.474C9.68104 14.7958 9.3 13.8759 9.3 12.9167ZM15.5 23.7667C15.0913 23.7667 14.6917 23.6455 14.3518 23.4184C14.012 23.1913 13.7471 22.8685 13.5906 22.4909C13.4342 22.1132 13.3933 21.6977 13.473 21.2968C13.5528 20.8959 13.7496 20.5277 14.0386 20.2386C14.3277 19.9496 14.6959 19.7528 15.0968 19.673C15.4977 19.5933 15.9132 19.6342 16.2909 19.7906C16.6685 19.9471 16.9913 20.212 17.2184 20.5518C17.4455 20.8917 17.5667 21.2913 17.5667 21.7C17.5667 22.2481 17.3489 22.7738 16.9614 23.1614C16.5738 23.5489 16.0481 23.7667 15.5 23.7667ZM21.7 17.5667C21.2913 17.5667 20.8917 17.4455 20.5518 17.2184C20.212 16.9913 19.9471 16.6685 19.7906 16.2909C19.6342 15.9132 19.5933 15.4977 19.673 15.0968C19.7528 14.6959 19.9496 14.3277 20.2386 14.0386C20.5277 13.7496 20.8959 13.5528 21.2968 13.473C21.6977 13.3933 22.1132 13.4342 22.4909 13.5906C22.8685 13.7471 23.1913 14.012 23.4184 14.3518C23.6455 14.6917 23.7667 15.0913 23.7667 15.5C23.7667 16.0481 23.5489 16.5738 23.1614 16.9614C22.7738 17.3489 22.2481 17.5667 21.7 17.5667Z" fill="#D10000"/>
</svg>
